<?xml version="1.0" standalone="no"?>
<!DOCTYPE svg PUBLIC "-//W3C//DTD SVG 20010904//EN"
 "http://www.w3.org/TR/2001/REC-SVG-20010904/DTD/svg10.dtd">
<svg version="1.0" xmlns="http://www.w3.org/2000/svg"
 width="700.000000pt" height="700.000000pt" viewBox="0 0 700.000000 700.000000"
 preserveAspectRatio="xMidYMid meet">
<metadata>
Created by potrace 1.14, written by Peter Selinger 2001-2017
</metadata>
<g transform="translate(0.000000,700.000000) scale(0.100000,-0.100000)"
fill="#000000" stroke="none">
<path d="M4969 6555 c-108 -101 -203 -173 -283 -216 -50 -27 -66 -31 -116 -27
-72 5 -183 58 -320 152 -124 86 -137 93 -158 80 -9 -6 -32 -38 -51 -72 -48
-86 -130 -193 -169 -218 -51 -35 -123 -46 -321 -50 -101 -2 -187 -7 -192 -10
-5 -2 -29 -44 -54 -93 -25 -48 -61 -106 -81 -129 -43 -50 -83 -59 -203 -42
-68 9 -86 9 -97 -2 -6 -7 -22 -80 -33 -163 -12 -82 -24 -157 -26 -166 -3 -9
-48 -31 -108 -53 -221 -82 -474 -228 -652 -378 -410 -345 -667 -798 -756
-1333 -31 -185 -31 -485 0 -670 62 -371 200 -695 421 -985 507 -666 1345 -980
2170 -813 176 35 340 92 515 178 171 84 289 160 428 275 78 65 108 83 154 95
84 22 138 18 233 -16 47 -17 95 -33 107 -36 17 -4 44 17 135 110 62 63 135
129 162 147 79 53 232 99 536 160 85 17 165 33 177 36 49 10 47 36 -11 146
-89 169 -107 262 -61 316 48 57 267 192 468 287 91 43 95 56 43 137 -103 163
-177 332 -178 409 0 79 72 209 206 373 31 38 56 74 56 80 0 6 -27 45 -60 85
-78 98 -130 197 -130 248 0 56 55 136 180 266 99 103 101 107 98 148 l-3 42
-100 36 c-137 49 -294 130 -319 164 -19 25 -21 43 -20 145 0 64 6 135 12 156
8 27 8 45 1 58 -12 22 -23 22 -146 -6 -39 -9 -78 -13 -87 -10 -8 3 -20 20 -25
37 -23 71 -57 318 -86 620 -13 145 -23 177 -52 177 -8 0 -61 -37 -118 -82
-110 -89 -203 -149 -232 -152 -27 -2 -51 83 -65 225 -16 159 -14 158 -167 86
-222 -107 -325 -128 -363 -77 -27 37 -64 154 -88 277 -11 58 -25 112 -31 120
-22 26 -51 11 -140 -72z m91 -97 c33 -135 56 -202 84 -254 67 -120 148 -123
403 -13 64 27 117 48 118 47 1 -2 7 -42 13 -89 24 -170 65 -249 130 -249 41 0
132 49 232 124 47 35 88 62 93 59 4 -2 7 -21 7 -41 0 -56 38 -381 60 -507 35
-206 57 -231 190 -222 l75 5 0 -127 c0 -139 6 -161 67 -219 36 -36 196 -118
299 -153 l66 -23 -96 -108 c-162 -181 -193 -255 -156 -367 13 -41 96 -177 149
-246 6 -7 -16 -44 -63 -106 -39 -52 -92 -136 -118 -186 -56 -110 -65 -176 -38
-268 18 -62 85 -203 141 -296 19 -31 34 -61 34 -65 0 -5 -56 -38 -125 -73
-145 -74 -316 -184 -362 -232 -38 -41 -63 -96 -63 -142 0 -53 28 -146 70 -232
21 -44 37 -82 35 -83 -2 -2 -77 -19 -167 -38 -199 -42 -365 -87 -436 -119 -69
-32 -115 -68 -234 -183 l-96 -94 -81 27 c-44 14 -105 29 -135 32 l-55 6 53 61
c381 441 573 1042 516 1617 -66 668 -418 1250 -980 1622 -478 316 -1110 431
-1665 302 -32 -8 -61 -12 -63 -10 -4 4 4 70 24 193 l5 32 96 0 c151 0 196 33
289 208 l39 73 60 -6 c82 -8 309 11 373 31 71 23 137 84 213 197 34 51 62 93
64 95 1 2 44 -25 94 -58 50 -34 135 -82 188 -108 90 -43 104 -47 173 -47 62 0
85 5 133 28 68 34 189 122 267 195 30 28 58 51 62 52 4 0 12 -19 18 -42z
m-1380 -879 c233 -21 454 -78 676 -176 l105 -45 128 -137 c224 -236 343 -387
515 -648 175 -267 321 -556 440 -873 41 -109 46 -131 46 -205 0 -622 -299
-1241 -780 -1614 -132 -102 -118 -92 -165 -122 -169 -111 -369 -203 -570 -262
-183 -54 -498 -94 -650 -82 -248 19 -501 67 -610 115 -11 5 -50 20 -87 34 -86
32 -226 102 -325 163 -332 207 -600 501 -771 848 -51 103 -125 285 -118 292 1
2 25 -25 53 -60 76 -94 388 -412 454 -463 130 -100 270 -136 391 -100 77 22
150 21 199 -4 22 -12 76 -54 120 -95 94 -86 143 -113 225 -121 55 -6 62 -4 92
21 18 15 51 55 74 88 l40 59 44 -6 c39 -5 48 -2 102 39 32 24 103 92 157 150
54 59 124 126 155 150 43 33 63 57 80 97 68 158 -46 395 -270 558 -39 27 -82
69 -97 92 -24 36 -28 51 -28 117 0 68 4 84 36 146 20 39 73 126 118 195 61 93
80 131 76 147 -35 141 14 267 124 316 59 26 112 17 192 -34 80 -50 225 -120
399 -193 187 -78 269 -133 353 -240 99 -124 273 40 188 178 -13 20 -32 38 -44
40 -12 2 -53 9 -91 14 -91 14 -184 61 -235 119 -60 67 -66 135 -20 209 19 31
25 34 68 34 88 0 170 -52 339 -213 92 -89 168 -152 200 -169 29 -14 48 -29 42
-33 -5 -3 -10 -17 -10 -30 0 -44 90 -72 142 -44 17 9 19 17 14 52 -4 23 -16
70 -26 105 -11 35 -36 147 -56 250 -43 229 -100 451 -121 475 -23 25 -74 21
-158 -12 -102 -41 -132 -45 -202 -27 -80 21 -121 40 -303 140 -85 47 -190 98
-234 112 -69 23 -88 26 -156 20 -104 -9 -150 4 -210 60 -45 42 -100 136 -116
197 -6 27 -9 28 -46 22 -59 -10 -129 10 -288 85 -152 72 -237 96 -299 85 -20
-3 -80 -36 -136 -74 -55 -37 -125 -82 -155 -99 -90 -50 -322 -148 -370 -156
-25 -4 -64 -18 -86 -31 -75 -44 -133 -164 -88 -182 32 -12 98 19 146 67 65 66
147 104 327 150 115 30 175 51 238 85 136 74 214 68 260 -17 35 -67 13 -190
-43 -239 -62 -54 -107 -58 -370 -33 -356 34 -440 -5 -660 -301 -82 -112 -134
-165 -160 -165 -27 0 -39 46 -26 96 7 24 12 56 12 69 0 44 -54 50 -119 15 -53
-28 -32 17 72 156 438 588 1144 909 1857 843z m-562 -1191 c7 -7 12 -26 12
-43 0 -28 -4 -31 -59 -49 -91 -29 -109 0 -41 66 42 39 67 47 88 26z m-469
-633 c35 -17 41 -32 41 -96 0 -62 -25 -113 -79 -162 -47 -43 -79 -47 -109 -14
-62 66 -51 222 19 271 29 20 91 21 128 1z m-328 -595 c20 -11 25 -45 10 -69
-7 -11 -18 -11 -59 -1 -59 14 -81 33 -62 54 19 23 80 32 111 16z m863 -39 c10
-15 -4 -38 -30 -50 -33 -15 -44 -7 -44 30 0 26 3 29 34 29 19 0 37 -4 40 -9z"/>
<path d="M4393 5200 c-61 -31 -82 -70 -72 -127 16 -86 96 -186 175 -219 76
-32 187 -4 213 53 52 115 -76 284 -234 308 -30 4 -51 0 -82 -15z"/>
<path d="M3165 1919 c-9 -29 7 -42 30 -25 11 8 16 19 12 30 -9 23 -34 20 -42
-5z"/>
</g>
</svg>
